<?xml version="1.0" encoding="UTF-8" standalone="no"?>
<!-- Generator: Adobe Illustrator 14.0.0, SVG Export Plug-In . SVG Version: 6.00 Build 43363)  -->

<svg
   xmlns:dc="http://purl.org/dc/elements/1.1/"
   xmlns:cc="http://creativecommons.org/ns#"
   xmlns:rdf="http://www.w3.org/1999/02/22-rdf-syntax-ns#"
   xmlns:svg="http://www.w3.org/2000/svg"
   xmlns="http://www.w3.org/2000/svg"
   xmlns:sodipodi="http://sodipodi.sourceforge.net/DTD/sodipodi-0.dtd"
   xmlns:inkscape="http://www.inkscape.org/namespaces/inkscape"
   version="1.1"
   id="Layer_1"
   x="0px"
   y="0px"
   width="612px"
   height="792px"
   viewBox="0 0 612 792"
   enable-background="new 0 0 612 792"
   xml:space="preserve"
   inkscape:version="0.47 r22583"
   sodipodi:docname="slug.svg"><metadata
   id="metadata77"><rdf:RDF><cc:Work
       rdf:about=""><dc:format>image/svg+xml</dc:format><dc:type
         rdf:resource="http://purl.org/dc/dcmitype/StillImage" /><dc:title></dc:title></cc:Work></rdf:RDF></metadata><defs
   id="defs75"><inkscape:perspective
     sodipodi:type="inkscape:persp3d"
     inkscape:vp_x="0 : 396 : 1"
     inkscape:vp_y="0 : 1000 : 0"
     inkscape:vp_z="612 : 396 : 1"
     inkscape:persp3d-origin="306 : 264 : 1"
     id="perspective79" /></defs><sodipodi:namedview
   pagecolor="#ffffff"
   bordercolor="#666666"
   borderopacity="1"
   objecttolerance="10"
   gridtolerance="10"
   guidetolerance="10"
   inkscape:pageopacity="0"
   inkscape:pageshadow="2"
   inkscape:window-width="1596"
   inkscape:window-height="872"
   id="namedview73"
   showgrid="false"
   inkscape:zoom="4"
   inkscape:cx="321.73282"
   inkscape:cy="434.65209"
   inkscape:window-x="1440"
   inkscape:window-y="24"
   inkscape:window-maximized="0"
   inkscape:current-layer="Layer_1" />
<path
   d="M462.695,412.655c0,6.627-5.373,12-12,12H191.5c-6.627,0-12-5.373-12-12V309c0-6.627,5.373-12,12-12h259.195  c6.627,0,12,5.373,12,12V412.655z"
   id="path3"
   style="fill:#333333;fill-opacity:1" />
<path
   fill="#FFFFFF"
   d="M355.462,318.169h21.534v41.611c0,4.126-0.644,8.022-1.93,11.688c-1.286,3.666-3.304,6.872-6.051,9.618  c-2.747,2.745-5.63,4.673-8.646,5.784c-4.192,1.555-9.227,2.333-15.103,2.333c-3.398,0-7.106-0.238-11.124-0.714  c-4.019-0.477-7.377-1.42-10.076-2.833c-2.699-1.412-5.169-3.42-7.408-6.022c-2.238-2.603-3.771-5.285-4.598-8.046  c-1.334-4.443-2-8.379-2-11.807v-41.611h21.533v42.602c0,3.808,1.056,6.784,3.168,8.925c2.112,2.142,5.042,3.213,8.79,3.213  c3.716,0,6.63-1.055,8.742-3.166s3.168-5.101,3.168-8.973V318.169z"
   id="path5" />
<g
   id="_x38_UmtF8_1_">
	<g
   id="g8">
		<path
   fill-rule="evenodd"
   clip-rule="evenodd"
   fill="#006EA7"
   d="M277.28,385.767c0.901-0.525,1.262-1.59,1.604-2.673    c1.368-0.532,2.104-1.695,2.672-3.029c0.332-0.17,0.596,0.534,0.712,0c-0.422-0.35-0.362-1.182-0.356-1.96    c0.684-1.432,2.59-2.465,2.495-4.098c1.064-1.013,1.766-2.391,1.781-4.454c1.237-3.692,2.813-7.045,4.276-10.512    c2.527-3.353,4.186-7.573,6.592-11.047c0.035-0.688,0.006-1.312-0.178-1.781c-0.141-3.264-0.058,0.425-0.356,1.425    c0.017-4.363-0.305-0.443-0.534,1.069c0.062-0.905-0.043-4.638-0.179-2.138c-0.364,0.883-0.12,2.374-0.534,3.207    c0.086-0.817-0.138-0.809-0.178-1.247c-0.345-3.729,0.1,0.037-0.356,1.425c-0.274-0.616-0.158-1.624-0.178-2.494    c-0.48-0.352,0.137,1.912-0.356,2.138c-0.036-0.336,0.121-1.76-0.178-1.248c-0.116,0.953,0.234,2.373-0.179,3.029    c0.022-1.989-0.258-2.584-0.178-4.632c-0.478,1.095,0.068,2.257-0.535,3.029c-0.058-0.429,0.152-2.036-0.178-1.604    c-0.158,1.029-0.052,2.324-0.356,3.207c-0.115-0.717,0.231-1.895-0.178-2.316c-0.267,0.98-0.101,2.393-0.535,3.207    c-0.114-0.658,0.231-1.774-0.178-2.138c-0.301,0.946-0.312,2.183-0.712,3.029c-0.055-7.538,4.197-10.77,9.265-13.185    c0.025-0.738-0.049-1.376-0.356-1.782c-0.109,0.426,0.224,1.292-0.178,1.425c-0.384-0.151,0.067-1.136-0.356-1.248    c-0.286,0.308-0.086,1.102-0.535,1.248c-0.024-0.332-0.117-0.596-0.356-0.712c-0.209,0.266-0.221,0.728-0.534,0.891    c-0.098-0.259,0.208-0.921-0.179-0.891c0.038,0.512-0.045,0.904-0.356,1.069c-0.097-0.259,0.208-0.921-0.178-0.891    c-0.019,0.456-0.101,0.85-0.356,1.069c-0.246-0.563,0.441-1.075,0-1.247c-0.079,0.455-0.25,0.818-0.535,1.069    c-0.049-0.312,0.501-0.889,0-1.069c-0.138,0.574-0.373,1.053-0.712,1.425c-0.171-0.332,0.533-0.596,0-0.712    c-0.708,1.044-0.592,1.356-1.426,1.604c0.231-0.43,0.963-1.283,0.713-1.604c-0.281,0.55-0.614,1.049-1.069,1.425    c0.092-0.511,0.933-1.194,0.535-1.604c-0.484,1.06-1.068,2.02-1.781,2.851c0.169-0.667,0.995-1.611,0.712-2.138    c-0.73,1.11-1.38,2.302-2.138,3.385c0.216-1.093,1.328-2.232,1.248-3.029c-0.681,0.922-1.395,1.812-2.139,2.672    c1.709-3.577,4.173-6.399,9.622-6.236c-0.235-0.446,0.705-0.558,0.178-0.712c-0.162,0.102-0.656,0.735-0.713,0.356    c0.103-0.162,0.735-0.656,0.356-0.713c-0.244,0.409-0.734,0.573-1.069,0.891c0.05-0.268,0.766-0.75,0.356-0.891    c-0.185,0.246-0.707,1.056-0.891,0.713c0.05-0.268,0.766-0.75,0.356-0.891c-0.318,0.335-0.481,0.825-0.891,1.069    c0.098-0.446,0.832-1.173,0.534-1.425c-0.281,0.432-0.637,0.788-1.069,1.069c0.16-0.314,0.43-0.52,0.535-0.891    c-0.491-0.59-0.907,1.008-1.248,0.535c0.479-0.476,1.306-1.54,1.248-1.96c-0.528,0.782-1.706,1.854-2.316,1.96    c0.142-0.02,0.54-0.589,0.178-0.535c-0.185,0.246-0.707,1.056-0.891,0.713c0.338-0.207,0.901-1.105,0.713-1.247    c-0.247,0.298-0.823,1.183-1.069,0.891c0.222-0.323,0.968-1.038,0.713-1.247c-0.459,0.827-0.994,0.521-1.604,1.247    c0.246-0.532,0.823-0.839,1.069-0.891c-0.534-0.59-1.112,0.932-1.425,0.534c0.365-0.236,1.083-1.042,0.89-1.247    c-0.34,0.491-0.756,0.907-1.247,1.247c-0.038-0.354,0.755-0.761,0.356-0.891c-0.368,0.676-1.059,1.012-1.426,0.891    c0.531-0.401,1.572-2.054,1.426-1.959c-0.593,0.518-1.128,1.505-0.891,0.534c-0.368,0.411-1.058,1.428-1.425,1.247    c0.611-0.698,1.681-1.878,1.782-2.495c-0.975,0.985-1.76,2.16-2.851,3.029c0.886-1.337,0.765-1.53,1.426-2.673    c-0.718,0.827-1.368,1.721-2.139,2.495c0.089-0.572,1-1.247,0.713-1.604c-0.44,0.45-0.701,1.081-1.248,1.425    c0.05-0.268,0.767-0.75,0.357-0.891c-0.296,0.357-0.479,0.828-1.069,0.891c0.08-0.35,0.873-0.89,0.535-1.069    c-0.053,0.158-0.482,0.78-0.535,0.356c0.39-0.354,1.721-2.109,1.069-1.781c-0.933,1.432-1.65,2.182-2.495,2.138    c0.641-0.725,1.25-1.481,1.782-2.316c-1.267,0.34-2.933,1.223-3.92,1.248c3.262-2.799,9.076-2.485,12.65-4.632    c-1.32,0.167-2.61,1.306-3.741,1.069c0.433-0.111,1.504-0.501,1.247-0.713c-0.642,0.351-1.518,0.7-1.96,0.356    c0.977-0.389,1.835-0.897,2.673-1.425c-1.156-0.006-2.487,1.439-3.207,0.713c0.124,0.227,2.03-0.545,1.425-0.891    c3.798-1.134,6.917,0.405,8.909,2.138c0.456-0.137,1.01-0.178,1.247-0.535c-0.483-0.11-1.414,0.227-1.604-0.178    c0.442,0.026,0.864,0.033,0.891-0.356c-0.426-0.109-1.293,0.224-1.425-0.178c0.562,0.028,1.075,0.006,1.247-0.356    c-0.483-0.11-1.414,0.226-1.604-0.178c0.405-0.13,1.39,0.321,1.248-0.357c-0.6-0.113-1.655,0.229-1.96-0.178    c0.577-0.077,1.541,0.234,1.604-0.356c-0.707-0.125-1.974,0.311-2.138-0.356c0.538-0.056,1.385,0.198,1.425-0.357    c-1.012-0.116-2.492,0.235-3.208-0.178c0.596-0.065,2.121-0.126,1.96-0.356c-1.683-0.255-3.293,0.504-4.632,0    c0.775,0.003,1.603,0.059,2.138-0.178c1.231-0.434-2.728,0.106-3.207-0.357c2.817-0.26,3.385,0.414,4.632,0    c-1.377,0.457-4.92-0.643-6.592-0.534c3.388-0.112-0.037-0.067-1.248-0.356c1.842-0.118,4.157,0.236,5.702-0.178    c-1.085-0.162-2.167-0.328-3.029-0.712c1.736-0.012,3.575,0.817,4.989,0.535c-0.819-0.309-1.964-0.293-2.673-0.713    c2.16-0.198,3.955,0.914,4.989,1.248c-0.246-0.018-0.695-0.695-0.356-0.713c0.636,0.441,0.688,1.648,0.891,0.891    c1.303,1.073,2.191,2.561,3.207,3.92c0.104-0.823-0.826-1.541-0.356-2.138c0.229,0.482,0.324,1.101,0.892,1.247    c-0.113-2.799-3.34-3.431-4.277-4.811c0.757,0.257,1.852,1.113,2.495,0.891c-0.633-0.376-1.328-0.691-1.781-1.247    c0.717,0.237,1.604,1.24,2.138,1.069c-1.025-0.876-1.975-1.826-2.851-2.851c0.97,0.576,2.019,2.018,2.851,2.138    c-0.578-0.554-1.585-1.617-1.604-2.138c0.607,0.643,1.531,1.91,2.138,1.959c-0.919-0.696-0.907-2.17-0.891-3.207    c0.824,2.324,1.763,4.532,2.495,6.949c0.034-1.392,0.081-2.77,0.357-3.92c0.063,1.184,0.079,2.414,0.356,3.386    c0.212-1.391,0.487-2.721,0.89-3.92c0.047,2.498-1.435,5.111-0.534,7.305c0.364-1.359,1.202-2.241,1.782-3.385    c-0.011,1.002-0.668,2.296-0.356,3.029c1.119-2.385,2.423-4.584,3.741-6.771c-0.663,2.13-2.198,4.333-2.493,6.236    c0.576-1.026,1.192-2.012,1.959-2.851c-0.351,0.958-1.453,2.107-1.426,2.851c2.326-1.771,5.252-3.894,7.661-4.989    c-0.658,0.533-1.982,1.339-1.96,1.96c0.219-0.385,1.207-0.918,1.427-0.713c-0.738,0.392-1.422,0.835-1.961,1.425    c0.718-0.061,1.717-0.77,2.138-0.534c-1.011,0.415-2.028,0.823-2.851,1.425c1.218,0.186-1.107,0.113-0.355,0.356    c0.717,0.114,1.895-0.232,2.314,0.178c-0.616,0.095-1.688-0.264-1.78,0.357c0.657,0.113,1.774-0.231,2.138,0.178    c-1.128,0-2.257,0-3.386,0c-0.19,0.495,2.282-0.148,2.674,0.356c-1.03,0.158-2.325,0.052-3.208,0.356    c0.288,0.248,0.919,0.151,1.069,0.535c-0.579,0.206-1.095-0.544-1.425,0c0.21,0.086,0.404,0.19,0.534,0.356    c-0.574,0.039-0.754-0.315-1.425-0.178c-0.188,0.663,0.6,0.349,0.712,0.712c-0.798-0.026-1.525,0.02-1.96,0.357    c0.193,0.042,0.428,0.293,0.179,0.356c-0.405-0.101-1.235,0.242-2.139,0.534c0.312,0.043,0.405,0.306,0.355,0.712    c2.057,0.194,3.808-1.982,6.593-2.138c4.489-0.252,9.723,1.097,11.582,3.385c-0.377-0.397-1.304-1.023-1.247-0.356    c-0.175-0.241-0.475-0.356-0.712-0.534c-0.029,0.209,0.029,0.505-0.179,0.534c-0.21-0.635-1.042-0.635-0.357,0    c-0.549,0.006-0.956-1.05-1.247-0.712c0.337,0.15,0.967,0.918,0.714,1.069c-0.21-0.477-1.922-1.615-1.07-0.534    c-0.55-0.169-1.18-1.187-1.604-0.891c0.197,0.12,0.925,0.592,0.535,0.712c-0.522-0.374-1.464-1.263-1.961-1.069    c0.246,0.184,1.058,0.706,0.714,0.891c-0.771-0.656-1.765-1.086-2.673-1.604c0.072,0.764,1.268,1.338,1.068,1.781    c-0.521-0.373-1.259-1.466-1.78-1.247c0.551,0.517,1.003,1.134,1.425,1.782c-0.768-0.424-1.502-1.82-2.316-1.604    c0.132,0.354,1.042,0.843,0.713,1.069c-0.302-0.59-0.961-0.822-1.426-1.247c0.122,0.65,0.676,0.869,0.89,1.426    c-0.583-0.308-0.84-0.94-1.424-1.248c0.068,0.585,0.521,0.785,0.712,1.248c-0.544-0.168-0.558-0.867-1.247-0.891    c-0.156,0.528,0.762,0.878,0.357,1.069c-0.342-0.491-0.758-0.907-1.248-1.248c0.025,0.629,0.51,0.797,0.535,1.426    c6.039-0.754,7.989,3.532,10.333,5.88c-0.52-0.671-1.546-1.776-2.138-1.782c0.354,0.308,1.307,0.94,1.069,1.248    c-0.665-0.702-1.178-1.555-2.139-1.96c0.353,0.489,0.451,1.77-0.178,1.425c0.372,0.012-0.988-1.522-0.712-1.247    c0.059,0.835,1.014,1.711,0.712,2.316c-0.629-1.332-1.246-2.674-2.139-3.742c0.062,0.836,1.015,1.711,0.713,2.316    c-0.066-0.587-0.417-0.89-0.713-1.247c0.098,0.858,1.092,1.754,0.891,2.316c-0.648-1.016-1.381-2.893-2.138-3.207    c0.341,0.496,1.046,1.56,0.892,1.96c-0.375-0.639-0.946-2.02-1.425-1.96c0.705,1.076,0.888,1.727,1.068,2.672    c-0.397-0.348-0.734-2.139-1.247-1.247c0.364-0.047,0.825,0.691,0.533,0.712c-0.691-0.751-1.623-0.641-2.138-1.247    c-0.17,0.332,0.534,0.596,0,0.713c-0.05-0.267-0.229-1.287-0.533-0.713c0.148,0.114,0.557,0.833,0.178,0.891    c-0.004-0.454-0.768-1.704-0.535-1.247c-0.192,0.457,0.542,0.85,0,1.069c-0.203-0.628-0.391-1.271-0.891-1.604    c-0.231,0.442,0.522,0.739,0,0.891c-0.137-0.517-0.282-1.024-0.713-1.247c-0.039,0.574,0.315,0.754,0.179,1.425    c3.984,1.717,7.26,5.092,8.374,9.087c-0.313-0.713-1.042-2.453-1.604-1.782c-0.284-0.903-0.687-1.688-1.246-2.316    c-0.152,0.416,0.622,0.768,0.177,0.891c-0.483-0.823-0.899-1.713-1.602-2.316c-0.072,0.616,0.771,1.234,0.354,1.604    c-0.067-0.361-0.52-1.242-0.712-0.891c2.222,4.237,5.67,6.99,7.84,10.869c-0.511-0.267-1.229-1.258-1.604-1.069    c0.696,0.682,0.237,0.946,0.893,1.247c-0.628,0.283-0.771-1.127-1.247-0.356c-0.208-0.803-0.702-1.318-1.248-1.782    c-0.019,0.457-0.102,0.85-0.356,1.069c-0.107-0.664-0.262-1.282-0.712-1.604c0.277,0.754,0.18,1.689-0.179,0.535    c-0.107,1.117,0.134,1.885,0.179,2.851c-0.665-0.667-0.075,0.829-0.536,0.891c0.02-0.552,0.052-0.548-0.178-1.069    c0.305,0.691-0.576-0.854-0.534,0c-0.231-0.442,0.522-0.739,0-0.891c-0.024,0.332-0.117,0.596-0.357,0.713    c0.007-0.948,0.825-2.021,0.536-2.672c-0.256,0.694-0.426,1.475-0.892,1.959c-0.535-1.171,0.679-2.02,0.355-2.851    c-0.139,0.692-0.498,1.164-0.89,1.604c-0.07-0.307,0.264-0.457,0-0.535c-0.208,0.267-0.222,0.729-0.535,0.891    c0.062-0.52,0.406-1.673-0.177-0.891c-0.019-0.504,0.705-1.178,0.354-1.425c-0.199,0.23-0.437,1.325-0.712,0.891    c0.165-0.602,1.048-2.205,0.712-2.138c-0.845,1.483-0.565,1.019-1.424,2.138c0.177-1.309,1.25-2.666,1.069-3.741    c-0.314,0.993-0.828,1.786-1.248,2.672c0.222-1.617,0.554-1.763,0.356-2.672c-0.257,0.812-0.612,1.525-1.069,2.138    c-0.52-0.608,0.51-1.28,0-1.782c-0.023,0.333-0.117,0.596-0.355,0.713c0.022-0.347,0.548-1.64,0.178-1.248    c-0.248,0.288-0.151,0.919-0.535,1.069c0.414-1.291-0.065-0.503-0.355-1.247c0.317,0,0.498-0.334,0-0.712    c-0.081,0.455-0.25,0.819-0.535,1.069c-0.066-0.497,0.678-1.084,0.179-1.425c-0.137,0.517-0.282,1.025-0.713,1.247    c-0.079-0.396,0.55-0.966,0.178-1.069c-0.086,0.211-0.19,0.404-0.356,0.535c-0.034-0.93,0.718-2.008,0.356-2.672    c-0.31,0.7-0.638,1.382-1.069,1.96c-0.07-0.616,0.771-1.235,0.357-1.604c-0.025,0.332-0.118,0.595-0.357,0.712    c-0.17-0.332,0.533-0.596,0-0.712c-0.024,0.332-0.117,0.595-0.355,0.712c-0.083-0.457,0.629-1.01,0.178-1.247    c-0.109,0.484-0.354,0.834-0.713,1.069c-0.138-0.456,0.697-0.819,0.179-1.069c-0.11,0.484-0.354,0.834-0.713,1.069    c0.135-0.237,0.55-1.638,0.178-1.248c-0.06,0.416-0.183,0.768-0.534,0.891c-0.642-0.368-0.961-1.058-1.604-1.425    c1.639,4.003,4.453,6.832,5.523,11.403c-0.456-0.018-0.254-0.696-0.712-0.713c-0.045,0.882,0.758,1.85,0.356,2.494    c-0.079-0.455-0.25-0.818-0.535-1.069c-0.097,0.259,0.208,0.921-0.178,0.891c-0.041-0.73-0.087-1.457-0.356-1.96    c-0.408,0.185,0.085,1.272-0.355,1.425c-0.093-0.804,0.199-2.925-0.179-2.851c-0.102,0.313,0.215,1.047-0.179,1.069    c-0.007-0.62,0.101-1.695-0.355-0.891c0.012-0.644,0.055-1.427-0.356-0.713c-0.148-0.465,0.538-0.978,0-1.247    c-0.028,0.209,0.03,0.506-0.179,0.535c0.141-0.734-0.273-0.915-0.179-1.604c-0.812-0.219,0.018,1.204-0.533,1.247    c-0.301-1.126-0.428-2.423-0.892-3.385c-0.213,0.701,0.546,1.34,0,1.782c0.025-1.094-0.384-1.754-0.534-2.672    c-0.313-1.492,0.027,1.313-0.357,1.425c0.06-0.949-0.187-1.595-0.533-2.138c-0.251,0.624,0.5,1.141,0,1.426    c-0.045-0.33-0.181-1.459-0.356-1.069c0.006,0.538,0.479,1.526,0,1.96c-0.35-2.68-0.629-5.429-1.425-7.661    c-0.111,4.257,1.244,9.857-0.713,12.828c-0.009,1.358,0.097,2.83-0.357,3.742c-0.716-2.259,0.867-4.106,1.07-6.058    c0.333-3.204-0.324-7.03-0.535-10.334c-0.773,1.008-1.489,2.074-1.782,3.563c-0.103-0.313,0.216-1.047-0.178-1.069    c-0.677,1.284-1.423,2.497-2.139,3.741c0.128-2.249,1.594-4.106,1.782-5.701c-2.152,3.562-4.33,7.907-6.592,11.047    c-0.781,1.083-1.032,2.428-1.604,3.385c-0.243,0.406-0.675,0.812-0.891,1.247c-0.534,1.076-0.718,2.273-1.247,3.385    c-1.62,3.406-3.517,6.57-3.563,10.156c-1.401,2.198-5.328,15.059-3.381,16.118c-0.056,0.24-1.411-7.76-1.336-7.387     M313.983,334.275c-0.202-0.517-0.746-1.621-1.069-1.426C313.431,333.165,313.062,334.366,313.983,334.275z M297.592,330.177    c-0.79,0.279-1.748,0.391-2.316,0.891C296.204,330.927,296.959,330.615,297.592,330.177z M302.046,331.068    c0.605,0.263,1.324-0.143,1.782-0.535C303.286,330.765,302.398,330.649,302.046,331.068z M295.988,331.246    c0.39,0.301,1.054-0.265,1.425-0.534C296.917,330.869,296.329,330.935,295.988,331.246z M302.758,331.603    c0.599,0.004,0.942-0.246,1.248-0.535C303.708,331.365,302.705,330.956,302.758,331.603z M312.38,334.275c0.297,0,0.594,0,0.891,0    c-0.065-0.528-0.309-0.879-0.712-1.069c-0.233,0.442,0.521,0.74,0,0.891c0.036-0.312-0.755-0.956-0.357-0.534    C312.188,333.873,312.242,334.117,312.38,334.275z M311.311,333.385c0.186,0.468,0.145,1.162,0.891,1.069    C312.139,333.863,311.668,333.681,311.311,333.385z M312.201,337.482c-0.053-0.778-0.447-1.216-0.712-1.782    C311.604,336.417,311.491,337.361,312.201,337.482z M311.489,337.304c-0.138-0.456-0.179-1.01-0.535-1.247    C310.962,336.644,310.881,337.318,311.489,337.304z M312.914,337.661c-0.156-0.616-0.31-1.234-0.713-1.604    C312.362,336.668,312.217,337.585,312.914,337.661z M300.086,336.948c0.798-0.085,2.576,0.551,2.495,0.178    c-0.879-0.17-1.551-0.42-1.248-0.891C301.074,336.996,300.212,336.054,300.086,336.948z M300.798,338.552    c0.167,0.597-0.639,1.123-0.178,1.425c0.769-0.657,2.49-0.36,3.029-1.248c-0.513-0.529-0.309,0.446-0.891,0.356    c0.01-0.307-0.137-0.457-0.356-0.534c-0.024,0.332-0.117,0.595-0.356,0.712c-0.098-0.259,0.208-0.921-0.178-0.891    c-0.178,0.237-0.294,0.538-0.535,0.713C300.915,339,300.996,339.081,300.798,338.552z M309.885,342.293    c0.057-0.205,0.351-1.176,0-0.712c-0.038,0.138-0.005,0.352-0.178,0.356c-0.103-0.313,0.216-1.046-0.177-1.069    c-0.202,0.322-0.338,0.004-0.892-0.356C308.888,341.271,309.383,341.786,309.885,342.293z M316.834,342.649    c-0.258-0.633-0.394-1.388-0.891-1.782c-0.232,0.443,0.522,0.739,0,0.891c0.036-0.312-0.756-0.956-0.356-0.535    C315.709,342.358,316.342,341.885,316.834,342.649z M299.908,343.896c0.567-0.403-0.018-2.379-0.178-2.495    C299.844,342.178,299.498,343.416,299.908,343.896z M299.373,342.115c-0.278-0.945-0.319,1.652,0,2.494    C299.766,343.587,299.477,342.464,299.373,342.115z M298.304,343.896c0.113,0.6-0.229,1.655,0.178,1.96    C298.749,345.601,298.469,343.696,298.304,343.896z M298.838,343.006c-0.275-1.464-0.149,0.979-0.178,2.138    C299.431,344.621,298.869,343.167,298.838,343.006z M297.413,347.282c0.289-0.532,0.289-3.089,0-3.029    C297.647,345.382,297.02,346.584,297.413,347.282z M297.948,346.569c0.219-0.44,0.439-2.148-0.179-2.316    C297.884,344.97,297.538,346.147,297.948,346.569z"
   id="path10" />
	</g>
</g>
<path
   fill="#FFFFFF"
   d="M190.309,364.905l20.534-1.286c0.444,3.334,1.35,5.876,2.715,7.623c2.223,2.827,5.399,4.24,9.528,4.24  c3.081,0,5.455-0.722,7.123-2.167c1.667-1.445,2.501-3.121,2.501-5.026c0-1.81-0.794-3.43-2.382-4.859  c-1.589-1.429-5.273-2.779-11.053-4.049c-9.465-2.127-16.215-4.955-20.248-8.48c-4.066-3.526-6.098-8.02-6.098-13.483  c0-3.588,1.04-6.979,3.121-10.171c2.08-3.192,5.208-5.7,9.385-7.527c4.176-1.826,9.901-2.74,17.174-2.74  c8.925,0,15.729,1.66,20.415,4.979c4.685,3.319,7.471,8.6,8.361,15.841l-20.343,1.191c-0.541-3.144-1.676-5.431-3.406-6.86  c-1.731-1.429-4.121-2.144-7.17-2.144c-2.509,0-4.399,0.532-5.669,1.596c-1.271,1.064-1.906,2.358-1.906,3.883  c0,1.112,0.524,2.113,1.572,3.001c1.016,0.921,3.43,1.779,7.242,2.573c9.433,2.033,16.189,4.089,20.271,6.169  c4.081,2.081,7.051,4.661,8.909,7.742c1.858,3.081,2.787,6.527,2.787,10.338c0,4.479-1.238,8.607-3.716,12.387  c-2.478,3.78-5.939,6.646-10.386,8.6c-4.447,1.953-10.052,2.93-16.817,2.93c-11.879,0-20.104-2.287-24.678-6.86  C193.501,377.768,190.912,371.956,190.309,364.905z"
   id="path12" />
<path
   fill="#FFFFFF"
   d="M254.777,318.169h21.582v52.644h33.682v17.198h-55.264V318.169z"
   id="path14" />
<path
   fill="#FFFFFF"
   d="M416.644,362.713v-14.531h33.349v29.776c-6.384,4.352-12.029,7.313-16.937,8.885  c-4.907,1.572-10.728,2.358-17.46,2.358c-8.29,0-15.048-1.413-20.271-4.24c-5.225-2.827-9.274-7.035-12.148-12.625  c-2.875-5.59-4.312-12.006-4.312-19.247c0-7.623,1.572-14.252,4.716-19.89c3.145-5.638,7.75-9.917,13.816-12.839  c4.732-2.255,11.101-3.383,19.104-3.383c7.718,0,13.489,0.699,17.317,2.096c3.827,1.398,7.003,3.566,9.528,6.503  c2.524,2.938,4.422,6.662,5.692,11.172l-20.818,3.716c-0.858-2.636-2.311-4.652-4.359-6.05c-2.049-1.397-4.661-2.096-7.837-2.096  c-4.733,0-8.504,1.644-11.315,4.931c-2.811,3.287-4.216,8.488-4.216,15.603c0,7.559,1.421,12.958,4.264,16.198  c2.842,3.24,6.805,4.86,11.887,4.86c2.413,0,4.717-0.349,6.908-1.048c2.191-0.698,4.7-1.889,7.527-3.573v-6.574H416.644z"
   id="path16" />
<g
   id="_x38_UmtF8_2_">
	<g
   id="g19">
		<path
   fill-rule="evenodd"
   clip-rule="evenodd"
   fill="#006EA7"
   d="M292.553,204.906c0.779-0.453,1.09-1.373,1.386-2.31    c1.182-0.46,1.819-1.466,2.309-2.618c0.287-0.146,0.516,0.462,0.616,0c-0.364-0.302-0.313-1.021-0.308-1.693    c0.613-1.285,2.004-1.794,2.156-3.542c0.915-0.88,1.508-2.083,1.539-3.85c2.295-7.047,5.936-12.748,9.393-18.632    c0.031-0.595,0.006-1.134-0.154-1.54c-0.121-2.821-0.049,0.367-0.307,1.232c-0.1-0.569,0.199-1.534-0.154-1.848    c-0.198,0.828-0.016,2.037-0.309,2.771c-0.188-1.298,0.27-3.893-0.154-1.694c-0.131,0.683-0.232,1.715-0.461,2.618    c0.074-0.706-0.119-0.699-0.154-1.078c-0.298-3.223,0.086,0.032-0.309,1.231c-0.309-0.46-0.086-1.453-0.153-2.156    c-0.415-0.304,0.118,1.652-0.308,1.848c-0.031-0.291,0.104-1.521-0.154-1.078c-0.101,0.824,0.202,2.05-0.154,2.618    c-0.07-1.315-0.065-2.706-0.308-3.85c-0.098,1.169,0.159,1.779-0.308,2.464c-0.051-0.371,0.131-1.76-0.154-1.386    c-0.082,0.944-0.064,1.989-0.309,2.771c-0.098-0.569,0.199-1.534-0.153-1.848c-0.272,0.754-0.074,1.979-0.462,2.618    c-0.099-0.569,0.199-1.534-0.154-1.848c-0.26,0.818-0.27,1.886-0.615,2.618c-0.051-6.517,3.611-9.323,8.006-11.395    c0.021-0.638-0.042-1.189-0.308-1.54c-0.094,0.368,0.193,1.117-0.153,1.232c-0.332-0.13,0.057-0.981-0.309-1.078    c-0.247,0.266-0.074,0.952-0.462,1.078c-0.021-0.287-0.101-0.515-0.308-0.616c-0.181,0.23-0.191,0.629-0.462,0.77    c-0.026-0.23,0.055-0.568-0.154-0.616c-0.017,0.394-0.087,0.734-0.308,0.924c-0.089-0.271,0.186-0.905-0.154-0.924    c-0.016,0.394-0.087,0.734-0.309,0.924c-0.211-0.487,0.382-0.929,0-1.078c-0.068,0.393-0.215,0.708-0.461,0.924    c-0.092-0.274,0.451-0.64,0-0.77c-0.229,0.337-0.301,0.829-0.616,1.078c-0.147-0.287,0.461-0.515,0-0.616    c-0.611,0.902-0.511,1.172-1.231,1.386c0.133-0.337,0.822-0.911,0.461-1.232c-0.128,0.488-0.449,0.783-0.77,1.078    c0.085-0.386,0.719-1.014,0.462-1.232c-0.538,0.745-0.902,1.664-1.54,2.31c0.146-0.577,0.86-1.392,0.616-1.848    c-0.593,0.999-1.196,1.986-1.848,2.926c0.187-0.945,1.147-1.929,1.078-2.618c-0.589,0.797-1.205,1.566-1.849,2.31    c1.279-2.623,2.948-4.854,6.468-5.235c0.136-0.386,0.886-0.952,0.616-1.232c-0.275,0.29-0.416,0.713-0.77,0.924    c0.084-0.386,0.719-1.014,0.461-1.232c-0.242,0.373-0.551,0.681-0.924,0.924c0.139-0.272,0.372-0.449,0.463-0.77    c-0.425-0.51-0.784,0.871-1.078,0.462c0.413-0.412,1.128-1.331,1.078-1.694c-0.457,0.675-1.475,1.603-2.002,1.694    c0.122-0.017,0.467-0.509,0.154-0.462c-0.16,0.212-0.611,0.913-0.771,0.616c0.292-0.179,0.778-0.955,0.616-1.078    c-0.213,0.258-0.711,1.022-0.924,0.77c0.191-0.279,0.836-0.896,0.615-1.078c-0.396,0.714-0.859,0.45-1.386,1.078    c0.213-0.459,0.712-0.725,0.924-0.77c-0.462-0.51-0.962,0.806-1.231,0.462c0.316-0.205,0.937-0.901,0.77-1.078    c-0.346,0.476-0.756,0.886-1.231,1.232c0.069-0.302,0.753-0.77,0.462-0.924c-0.318,0.584-0.914,0.875-1.232,0.77    c0.459-0.347,1.359-1.775,1.232-1.694c-0.513,0.448-0.975,1.301-0.77,0.462c-0.318,0.355-0.914,1.234-1.232,1.078    c0.528-0.603,1.453-1.624,1.54-2.156c-0.843,0.851-1.521,1.867-2.464,2.618c0.773-1.135,0.622-1.215,1.078-2.155    c-0.553,0.68-1.076,1.388-1.694,2.001c0.077-0.495,0.864-1.077,0.616-1.386c-0.367,0.403-0.568,0.972-1.078,1.232    c0.043-0.231,0.662-0.648,0.309-0.77c-0.256,0.309-0.414,0.716-0.924,0.77c0.068-0.303,0.754-0.77,0.461-0.924    c-0.045,0.137-0.416,0.674-0.461,0.308c0.336-0.306,1.486-1.823,0.924-1.54c-0.807,1.237-1.427,1.885-2.156,1.848    c0.522-0.658,1.079-1.282,1.54-2.002c-1.161,0.278-2.554,1.141-3.542,1.078c2.971-2.315,7.916-2.187,11.087-4.003    c-1.141,0.145-2.256,1.129-3.233,0.924c0.375-0.096,1.301-0.433,1.078-0.616c-0.556,0.303-1.312,0.604-1.694,0.308    c0.788-0.393,1.619-0.742,2.31-1.232c-0.992,0.002-2.127,1.267-2.771,0.616c0.065,0.197,2.006-0.541,1.078-0.77    c3.344-0.938,6.128,0.269,7.854,1.848c0.394-0.119,0.872-0.154,1.077-0.462c-0.418-0.095-1.222,0.196-1.386-0.154    c0.382,0.022,0.747,0.028,0.77-0.308c-0.367-0.094-1.117,0.193-1.231-0.154c0.486,0.024,0.929,0.005,1.077-0.308    c-0.417-0.095-1.221,0.195-1.385-0.154c0.35-0.112,1.201,0.277,1.078-0.308c-0.52-0.098-1.431,0.198-1.694-0.154    c0.498-0.066,1.331,0.202,1.386-0.308c-0.705-0.065-1.738,0.198-2.002-0.308c0.498-0.066,1.332,0.203,1.387-0.308    c-0.875-0.1-2.154,0.203-2.772-0.154c0.515-0.057,1.833-0.109,1.694-0.308c-1.455-0.221-2.847,0.436-4.004,0    c0.887,0.015,1.768,0.022,2.31-0.308c-1.028-0.101-2.462,0.203-3.233-0.154c2.435-0.225,2.926,0.357,4.004,0    c-1.19,0.395-4.252-0.556-5.697-0.462c2.928-0.097-0.033-0.058-1.078-0.308c1.592-0.102,3.592,0.205,4.928-0.154    c-0.938-0.14-1.873-0.283-2.618-0.616c1.501-0.011,3.089,0.707,4.312,0.462c-0.709-0.267-1.697-0.253-2.311-0.616    c1.906-0.211,3.415,0.793,4.312,1.078c-0.316-0.043-0.308-0.411-0.463-0.616c0.756,0.204,0.716,1.484,0.924,0.77    c1.123,0.931,1.916,2.19,2.772,3.388c0.011-0.633-0.665-1.381-0.308-1.848c0.198,0.417,0.279,0.951,0.77,1.078    c-0.104-2.413-2.895-2.957-3.695-4.157c0.654,0.222,1.6,0.961,2.155,0.77c-0.704-0.425-1.452-0.806-2.001-1.386    c0.771,0.309,1.68,1.294,2.309,1.232c-0.885-0.757-1.707-1.578-2.463-2.463c0.838,0.498,1.744,1.744,2.463,1.848    c-0.624-0.505-1.029-1.229-1.539-1.848c0.731,0.399,1.398,1.678,2.002,1.693c-0.795-0.601-0.784-1.875-0.771-2.771    c0.712,2.008,1.524,3.917,2.155,6.005c0.005-1.228,0.064-2.4,0.309-3.388c0.082,0.944,0.064,1.989,0.309,2.771    c0.199-1.134,0.424-2.244,0.77-3.233c0.025,2.145-1.215,4.444-0.463,6.313c0.275-1.213,1.066-1.912,1.541-2.925    c-0.023,0.802-0.523,1.936-0.309,2.463c1.129-2.002,2.186-4.076,3.388-6.005c-0.645,1.922-2.001,3.952-2.31,5.697    c0.498-0.887,1.032-1.739,1.693-2.464c-0.303,0.829-1.255,1.821-1.231,2.464c1.978-1.565,4.561-3.344,6.621-4.312    c-0.501,0.425-1.618,1.047-1.54,1.54c0.225-0.196,0.934-0.695,1.078-0.462c-0.637,0.338-1.229,0.722-1.693,1.232    c0.682-0.041,1.51-0.742,2.002-0.462c-0.989,0.294-1.826,0.741-2.619,1.232c1.054,0.161-0.957,0.098-0.307,0.308    c0.67,0.099,1.74-0.201,2.155,0.154c-0.534,0.082-1.46-0.229-1.54,0.308c0.519,0.097,1.43-0.199,1.693,0.154    c-0.924,0-1.848,0-2.771,0c-0.212,0.424,1.865-0.125,2.156,0.308c-0.928-0.004-1.586,0.262-2.617,0.154    c-0.1,0.561,0.732,0.19,0.77,0.616c-0.5,0.178-0.947-0.47-1.232,0c0.182,0.075,0.35,0.165,0.463,0.308    c-0.496,0.034-0.652-0.272-1.232-0.154c-0.114,0.524,0.567,0.254,0.615,0.616c-0.689-0.022-1.317,0.017-1.693,0.308    c0.173,0.033,0.24,0.171,0.309,0.308c-0.654,0.168-1.527,0.116-2.002,0.462c0.378,0.187,0.412,0.717,0.924,0.77    c3.424-3.024,12.697-2.155,15.09,0.924c-0.863-0.964-0.918-0.03-1.693-0.77c-0.024,0.181,0.026,0.437-0.154,0.462    c-0.248-0.481-0.895-0.554-0.309,0c-0.475,0.005-0.826-0.907-1.077-0.616c0.291,0.13,0.835,0.793,0.616,0.924    c-0.266-0.306-0.889-1.054-1.232-0.77c0.539,0.752-1.846-0.789-2.31-0.77c0.21,0.211,0.98,0.648,0.771,0.77    c-0.834-0.45-1.605-0.961-2.465-1.386c0.063,0.66,1.096,1.157,0.924,1.54c-0.451-0.322-1.088-1.267-1.539-1.078    c0.477,0.447,0.867,0.98,1.232,1.54c-0.663-0.367-1.298-1.573-2.002-1.386c0.147,0.373,1.018,0.82,0.77,1.078    c-0.311-0.562-0.912-0.833-1.386-1.232c0.104,0.562,0.583,0.75,0.77,1.232c-0.505-0.266-0.728-0.812-1.231-1.078    c0.059,0.505,0.45,0.679,0.615,1.078c-0.471-0.146-0.482-0.75-1.078-0.77c0.061,0.505,0.451,0.679,0.617,1.078    c4.67-0.256,5.742,3.085,8.16,5.082c-0.602-0.375-1.316-1.451-1.848-1.386c0.258,0.212,1.022,0.711,0.77,0.924    c-0.574-0.606-1.017-1.344-1.848-1.694c0.172,0.517,0.572,1.174-0.153,1.386c0.062-0.418-0.723-1.293-0.462-0.924    c-0.041,0.663,0.787,1.258,0.462,1.694c-0.521-1.173-1.116-2.271-1.849-3.234c0.084,0.844,0.988,1.678,0.771,2.31    c-0.12-0.598-0.431-1.006-0.771-1.386c0.084,0.742,0.943,1.516,0.771,2.001c-0.562-0.877-1.194-2.5-1.848-2.771    c0.294,0.429,0.903,1.348,0.771,1.694c-0.324-0.552-0.817-1.745-1.232-1.694c0.689,0.777,0.58,1.5,1.078,2.31    c-0.665-0.271-2.086-1.802-2.156-0.77c-0.051-0.359-0.158-0.663-0.462-0.77c-0.147,0.287,0.462,0.515,0,0.616    c-0.085-0.274-0.079-0.64-0.308-0.77c-0.215,0.443,0.42,0.782,0,0.924c-0.094-0.278-0.327-1.196-0.463-0.924    c-0.092,0.274,0.452,0.64,0,0.77c-0.176-0.542-0.338-1.099-0.77-1.386c-0.199,0.382,0.452,0.639,0,0.77    c-0.117-0.447-0.243-0.886-0.615-1.078c-0.034,0.496,0.271,0.652,0.154,1.232c3.449,1.478,6.281,4.394,7.236,7.853    c-0.271-0.616-0.9-2.12-1.386-1.54c-0.247-0.78-0.595-1.458-1.077-2.002c-0.133,0.359,0.537,0.664,0.153,0.77    c-0.419-0.711-0.778-1.481-1.386-2.002c-0.016,0.487,0.68,1.053,0.309,1.386c-0.061-0.312-0.451-1.073-0.617-0.77    c1.642,3.125,4.818,6.054,6.775,9.393c-0.441-0.23-1.062-1.087-1.385-0.924c0.58,0.748,0.267,0.726,0.924,1.232    c-0.588,0.004-0.798-0.998-1.232-0.462c-0.179-0.694-0.605-1.139-1.078-1.54c0.032,0.442-0.039,0.782-0.308,0.924    c-0.093-0.574-0.226-1.108-0.616-1.386c0.24,0.652,0.156,1.459-0.154,0.462c-0.114,0.987,0.18,1.565,0.154,2.464    c-0.574-0.577-0.064,0.717-0.462,0.77c-0.089-0.271,0.187-0.905-0.153-0.924c-0.021,0.287-0.102,0.515-0.309,0.616    c-0.043-0.27,0.434-0.769,0-0.924c0.112,0.251-0.307,0.67-0.309,0.308c0.377-0.273,0.023-0.626-0.153-0.154    c0.006-0.819,0.712-1.747,0.462-2.31c-0.221,0.6-0.367,1.274-0.77,1.694c-0.463-1.012,0.586-1.746,0.308-2.464    c-0.177,0.542-0.339,1.099-0.771,1.386c-0.061-0.265,0.229-0.395,0-0.462c-0.18,0.23-0.191,0.63-0.461,0.77    c0.092-0.631,0.253-0.904-0.154-0.924c0.096-0.276,0.578-0.945,0.309-1.078c-0.224,0.444-0.422,0.914-0.771,1.232    c0.138-0.716,1.028-2.211,0.771-2.31c-0.629,1.238-0.594,0.983-1.232,1.848c0.162-1.123,1.047-2.338,0.924-3.233    c-0.271,0.858-0.715,1.543-1.078,2.31c0.191-1.397,0.479-1.524,0.309-2.31c-0.223,0.702-0.529,1.318-0.924,1.848    c-0.427-0.487,0.367-1.053,0-1.386c-0.075,0.182-0.164,0.349-0.309,0.462c0.021-0.3,0.475-1.417,0.154-1.078    c-0.214,0.249-0.131,0.794-0.463,0.924c-0.042-0.27,0.434-0.768,0-0.924c0.023,0.383-0.078,0.639-0.307,0.77    c-0.004-1.069,0.436-0.822,0-1.54c-0.069,0.393-0.217,0.708-0.463,0.924c-0.057-0.429,0.587-0.937,0.154-1.232    c-0.119,0.497-0.322,0.91-0.615,1.232c-0.137-0.459,0.479-0.938,0.153-1.078c-0.075,0.182-0.164,0.349-0.308,0.462    c-0.029-0.803,0.619-1.735,0.308-2.31c-0.194,0.678-0.587,1.159-0.924,1.694c-0.062-0.532,0.667-1.067,0.308-1.386    c-0.021,0.287-0.102,0.515-0.308,0.616c-0.147-0.287,0.461-0.515,0-0.616c-0.021,0.287-0.102,0.515-0.308,0.616    c-0.072-0.395,0.545-0.873,0.154-1.078c-0.096,0.418-0.307,0.721-0.617,0.924c-0.119-0.394,0.604-0.708,0.154-0.924    c-0.095,0.418-0.305,0.721-0.615,0.924c0.115-0.205,0.476-1.416,0.153-1.078c-0.052,0.359-0.157,0.664-0.462,0.77    c-0.555-0.318-0.83-0.914-1.386-1.232c1.415,3.461,3.864,5.888,4.773,9.855c-0.396-0.015-0.22-0.601-0.616-0.616    c-0.039,0.763,0.654,1.599,0.309,2.156c-0.068-0.393-0.217-0.708-0.463-0.924c-0.084,0.224,0.181,0.796-0.153,0.77    c-0.036-0.631-0.075-1.259-0.308-1.694c-0.354,0.16,0.072,1.1-0.309,1.232c-0.076-0.646,0.17-2.422-0.154-2.31    c-0.084,0.224,0.181,0.796-0.153,0.77c-0.006-0.536,0.087-1.465-0.308-0.77c0.01-0.556,0.047-1.233-0.309-0.616    c-0.203-0.477,0.457-0.854,0-1.078c-0.023,0.181,0.027,0.437-0.154,0.462c0.121-0.634-0.236-0.791-0.153-1.386    c-0.702-0.189,0.015,1.041-0.462,1.078c-0.307-0.926-0.351-2.113-0.77-2.926c-0.186,0.605,0.471,1.158,0,1.54    c-0.05-0.875-0.297-1.552-0.463-2.31c-0.27-1.289,0.024,1.135-0.308,1.231c0.05-0.82-0.161-1.378-0.462-1.848    c-0.217,0.539,0.432,0.986,0,1.232c-0.038-0.285-0.156-1.261-0.309-0.924c0.007,0.464,0.415,1.319,0,1.694    c-0.301-2.316-0.543-4.692-1.23-6.621c-0.084,3.651,1.084,8.54-0.617,11.086c-0.007,1.173,0.084,2.445-0.308,3.234    c-0.622-1.956,0.751-3.543,0.925-5.235c0.283-2.768-0.283-6.068-0.463-8.931c-0.668,0.872-1.287,1.792-1.539,3.08    c-0.09-0.271,0.186-0.905-0.154-0.924c-0.584,1.109-1.23,2.158-1.848,3.233c0.11-1.943,1.377-3.549,1.539-4.927    c-1.845,3.065-3.75,6.845-5.697,9.547c-0.36,0.5-0.275,1.205-0.615,1.848c-0.393,0.742-1.16,1.365-1.54,2.156    c-0.101,0.209,0.083,0.552,0,0.77c-0.172,0.448-0.893,0.861-1.078,1.386c-1.228,3.474-2.925,6.224-3.079,9.547    c-1.224,1.913-0.584,5.993,1.078,6.929c-0.049,0.208-0.22,0.294-0.154,0.617c2.602,2.427,5.516,4.543,8.931,6.158    C306.309,204.906,299.431,204.906,292.553,204.906z M323.965,159.174c0.021,0.543,0.441,0.689,0.463,1.232    c0.223-0.084,0.795,0.18,0.77-0.154C324.692,159.986,324.47,159.439,323.965,159.174z M323.35,159.174    c0.535,0.183,0.082,1.355,0.924,1.232C324.098,159.959,323.629,159.005,323.35,159.174z M326.891,163.64    c0.503-0.041,0.326,0.597,0.77,0.616C327.569,163.871,327.123,162.958,326.891,163.64z M311.646,162.408    c0.088-0.14,0.635-0.567,0.309-0.616c-0.211,0.354-0.635,0.495-0.924,0.77c0.043-0.231,0.662-0.648,0.308-0.77    c-0.159,0.405-0.61,0.519-0.771,0.924c0.514,0,1.027,0,1.54,0c-0.203-0.385,0.608-0.482,0.154-0.616    C312.123,162.188,311.695,162.735,311.646,162.408z M308.26,157.48c-0.162,0.009-0.122,0.198,0.153,0.154    c0.532-0.29,1.274-0.368,1.694-0.77C309.411,156.99,308.91,157.31,308.26,157.48z M314.11,157.634    C315.611,157.705,315.597,156.699,314.11,157.634L314.11,157.634z M308.721,157.788c0.338,0.26,0.912-0.229,1.232-0.462    C309.523,157.462,309.016,157.519,308.721,157.788z M314.572,158.096c0.518,0.004,0.814-0.212,1.078-0.462    C315.393,157.891,314.525,157.537,314.572,158.096z M322.887,160.406c0.258,0,0.514,0,0.771,0    c-0.095-0.418-0.306-0.721-0.616-0.924c-0.2,0.382,0.452,0.639,0,0.77c0.032-0.27-0.652-0.826-0.308-0.462    C322.722,160.058,322.768,160.269,322.887,160.406z M321.963,159.636c-0.039,0.451,0.349,0.473,0.309,0.924    c0.103,0,0.205,0,0.309,0c-0.001-0.155,0.124-0.184,0.153-0.308C322.375,160.147,322.321,159.74,321.963,159.636z     M322.733,163.178c-0.046-0.672-0.387-1.051-0.616-1.54C322.217,162.256,322.119,163.073,322.733,163.178z M322.117,163.023    c-0.119-0.394-0.153-0.873-0.462-1.078C321.662,162.453,321.592,163.035,322.117,163.023z M323.35,163.332    c-0.135-0.532-0.268-1.067-0.616-1.386C322.973,162.373,322.689,163.325,323.35,163.332z M312.263,162.715    c1.64,0.067,3.234,0.622,0.924-0.308c0.167-0.037,0.37-0.254,0.153-0.308C313.116,162.757,312.371,161.943,312.263,162.715z     M312.879,164.102c0.145,0.516-0.553,0.971-0.154,1.232c0.664-0.568,2.152-0.312,2.617-1.078c-0.443-0.458-0.267,0.386-0.77,0.308    c0.008-0.265-0.119-0.395-0.309-0.462c-0.021,0.287-0.101,0.515-0.307,0.616c-0.085-0.224,0.18-0.796-0.154-0.77    c-0.154,0.205-0.254,0.465-0.463,0.616C312.979,164.489,313.049,164.559,312.879,164.102z M320.731,167.335    c0.048-0.177,0.302-1.017,0-0.616c-0.034,0.119-0.004,0.304-0.153,0.308c-0.09-0.271,0.186-0.904-0.154-0.924    c-0.174,0.278-0.291,0.003-0.77-0.308C319.823,166.498,320.37,166.824,320.731,167.335z M326.736,167.643    c-0.223-0.547-0.34-1.199-0.77-1.54C326.086,166.754,326.234,167.375,326.736,167.643z M312.108,168.721    c0.49-0.348-0.016-2.056-0.153-2.156C312.054,167.236,311.754,168.306,312.108,168.721z M311.646,167.181    c-0.24-0.817-0.275,1.428,0,2.156C311.986,168.454,311.736,167.483,311.646,167.181z M311.339,169.799    c0.026-0.801-0.087-2.268-0.308-2.31C311.164,168.229,310.723,169.542,311.339,169.799z M310.877,170.415    c0.23-0.221-0.012-1.867-0.154-1.694C310.82,169.239,310.524,170.151,310.877,170.415z M309.953,171.646    c0.249-0.46,0.249-2.669,0-2.618C310.154,170.005,309.613,171.044,309.953,171.646z M310.415,171.031    c0.188-0.38,0.38-1.856-0.154-2.002C310.359,169.648,310.061,170.666,310.415,171.031z"
   id="path21" />
	</g>
</g>
<g
   id="g23">
	<path
   fill="#DAE121"
   d="M191.416,399.158l2.525-0.158c0.055,0.41,0.166,0.723,0.334,0.938c0.273,0.348,0.664,0.521,1.172,0.521   c0.379,0,0.671-0.089,0.876-0.267s0.308-0.384,0.308-0.618c0-0.223-0.098-0.422-0.293-0.598s-0.648-0.342-1.359-0.498   c-1.164-0.262-1.994-0.609-2.49-1.043c-0.5-0.434-0.75-0.986-0.75-1.658c0-0.441,0.128-0.858,0.384-1.251s0.641-0.701,1.154-0.926   s1.218-0.337,2.112-0.337c1.098,0,1.935,0.204,2.511,0.612s0.919,1.058,1.028,1.948l-2.502,0.146   c-0.066-0.387-0.206-0.668-0.419-0.844s-0.507-0.264-0.882-0.264c-0.309,0-0.541,0.065-0.697,0.196s-0.234,0.29-0.234,0.478   c0,0.137,0.064,0.26,0.193,0.369c0.125,0.113,0.422,0.219,0.891,0.316c1.16,0.25,1.991,0.503,2.493,0.759s0.867,0.573,1.096,0.952   s0.343,0.803,0.343,1.271c0,0.551-0.152,1.059-0.457,1.523s-0.73,0.817-1.277,1.058s-1.236,0.36-2.068,0.36   c-1.461,0-2.473-0.281-3.035-0.844S191.49,400.025,191.416,399.158z"
   id="path25" />
	<path
   fill="#FFFFFF"
   d="M207.843,402h-2.227v-1.008c-0.332,0.414-0.667,0.709-1.005,0.885s-0.753,0.264-1.245,0.264   c-0.656,0-1.171-0.196-1.544-0.589s-0.56-0.997-0.56-1.813v-3.961h2.396v3.422c0,0.391,0.072,0.668,0.217,0.832   s0.348,0.246,0.609,0.246c0.285,0,0.519-0.109,0.7-0.328s0.272-0.611,0.272-1.178v-2.994h2.385V402z"
   id="path27" />
	<path
   fill="#FFFFFF"
   d="M210.19,395.777h2.221v1.014c0.332-0.414,0.668-0.71,1.008-0.888s0.754-0.267,1.242-0.267   c0.66,0,1.177,0.196,1.55,0.589s0.56,0.999,0.56,1.819V402h-2.396v-3.422c0-0.391-0.072-0.667-0.217-0.829   s-0.348-0.243-0.609-0.243c-0.289,0-0.523,0.109-0.703,0.328s-0.27,0.611-0.27,1.178V402h-2.385V395.777z"
   id="path29" />
	<path
   fill="#FFFFFF"
   d="M223.735,399.562l2.268,0.258c-0.125,0.473-0.33,0.882-0.615,1.228s-0.649,0.614-1.093,0.806   s-1.007,0.287-1.69,0.287c-0.66,0-1.21-0.062-1.649-0.185s-0.817-0.321-1.134-0.597s-0.564-0.599-0.744-0.969   c-0.18-0.371-0.27-0.863-0.27-1.476c0-0.64,0.109-1.173,0.328-1.599c0.16-0.312,0.379-0.592,0.656-0.84s0.562-0.432,0.855-0.553   c0.465-0.191,1.061-0.287,1.787-0.287c1.016,0,1.79,0.182,2.323,0.545s0.907,0.895,1.122,1.594l-2.244,0.299   c-0.07-0.266-0.198-0.466-0.384-0.601s-0.435-0.202-0.747-0.202c-0.395,0-0.714,0.142-0.958,0.424   c-0.244,0.283-0.366,0.711-0.366,1.284c0,0.511,0.121,0.898,0.363,1.164c0.242,0.265,0.551,0.397,0.926,0.397   c0.312,0,0.575-0.08,0.788-0.24S223.63,399.895,223.735,399.562z"
   id="path31" />
	<path
   fill="#FFFFFF"
   d="M227.706,398.906c0-0.949,0.32-1.731,0.961-2.347s1.506-0.923,2.596-0.923c1.246,0,2.188,0.361,2.824,1.084   c0.512,0.582,0.768,1.299,0.768,2.15c0,0.957-0.317,1.741-0.952,2.353s-1.513,0.917-2.634,0.917c-1,0-1.809-0.254-2.426-0.762   C228.084,400.75,227.706,399.926,227.706,398.906z M230.096,398.9c0,0.555,0.112,0.965,0.337,1.23s0.507,0.398,0.847,0.398   c0.344,0,0.626-0.131,0.847-0.393s0.331-0.682,0.331-1.26c0-0.539-0.111-0.94-0.334-1.204s-0.498-0.396-0.826-0.396   c-0.348,0-0.635,0.134-0.861,0.401S230.096,398.354,230.096,398.9z"
   id="path33" />
	<path
   fill="#FFFFFF"
   d="M239.076,397.793l-2.279-0.24c0.086-0.398,0.21-0.712,0.372-0.94s0.396-0.427,0.7-0.595   c0.219-0.121,0.52-0.215,0.902-0.281s0.797-0.1,1.242-0.1c0.715,0,1.289,0.04,1.723,0.12s0.795,0.247,1.084,0.501   c0.203,0.176,0.363,0.425,0.48,0.747s0.176,0.63,0.176,0.923v2.748c0,0.293,0.019,0.522,0.056,0.688s0.118,0.378,0.243,0.636   h-2.238c-0.09-0.16-0.148-0.282-0.176-0.366s-0.055-0.216-0.082-0.396c-0.312,0.301-0.623,0.516-0.932,0.645   c-0.422,0.172-0.912,0.258-1.471,0.258c-0.742,0-1.306-0.172-1.69-0.516s-0.577-0.768-0.577-1.271c0-0.473,0.139-0.861,0.416-1.166   s0.789-0.531,1.535-0.68c0.895-0.18,1.475-0.306,1.74-0.378s0.547-0.167,0.844-0.284c0-0.293-0.061-0.498-0.182-0.615   s-0.334-0.176-0.639-0.176c-0.391,0-0.684,0.062-0.879,0.188C239.293,397.34,239.17,397.523,239.076,397.793z M241.145,399.047   c-0.328,0.117-0.67,0.221-1.025,0.311c-0.484,0.129-0.791,0.256-0.92,0.381c-0.133,0.129-0.199,0.275-0.199,0.439   c0,0.188,0.065,0.341,0.196,0.46s0.323,0.179,0.577,0.179c0.266,0,0.513-0.064,0.741-0.193s0.391-0.286,0.486-0.472   s0.144-0.427,0.144-0.724V399.047z"
   id="path35" />
	<path
   fill="#FFFFFF"
   d="M245.384,400.271l2.367-0.223c0.098,0.281,0.234,0.482,0.41,0.604s0.41,0.182,0.703,0.182   c0.32,0,0.568-0.068,0.744-0.205c0.137-0.102,0.205-0.228,0.205-0.38c0-0.172-0.09-0.305-0.27-0.397   c-0.129-0.066-0.471-0.148-1.025-0.246c-0.828-0.145-1.403-0.278-1.726-0.401c-0.322-0.122-0.594-0.33-0.814-0.623   s-0.331-0.626-0.331-1.001c0-0.41,0.119-0.763,0.357-1.06s0.566-0.518,0.984-0.664s0.979-0.22,1.682-0.22   c0.742,0,1.29,0.057,1.644,0.17s0.648,0.289,0.885,0.527s0.433,0.561,0.589,0.967l-2.262,0.223   c-0.059-0.199-0.156-0.346-0.293-0.439c-0.188-0.125-0.414-0.188-0.68-0.188c-0.27,0-0.466,0.048-0.589,0.144   s-0.185,0.211-0.185,0.348c0,0.152,0.078,0.268,0.234,0.346s0.496,0.147,1.02,0.21c0.793,0.09,1.383,0.215,1.77,0.375   s0.683,0.389,0.888,0.685c0.205,0.297,0.308,0.623,0.308,0.978c0,0.359-0.108,0.709-0.325,1.048   c-0.217,0.34-0.559,0.61-1.025,0.811c-0.467,0.201-1.103,0.302-1.907,0.302c-1.137,0-1.946-0.162-2.429-0.486   S245.521,400.869,245.384,400.271z"
   id="path37" />
	<path
   fill="#FFFFFF"
   d="M383.385,400.271l2.367-0.223c0.098,0.281,0.234,0.482,0.41,0.604s0.41,0.182,0.703,0.182   c0.32,0,0.568-0.068,0.744-0.205c0.137-0.102,0.205-0.228,0.205-0.38c0-0.172-0.09-0.305-0.27-0.397   c-0.129-0.066-0.471-0.148-1.025-0.246c-0.828-0.145-1.404-0.278-1.727-0.401c-0.322-0.122-0.594-0.33-0.814-0.623   s-0.33-0.626-0.33-1.001c0-0.41,0.119-0.763,0.357-1.06s0.566-0.518,0.984-0.664s0.979-0.22,1.682-0.22   c0.742,0,1.289,0.057,1.643,0.17s0.648,0.289,0.885,0.527s0.434,0.561,0.59,0.967l-2.262,0.223   c-0.059-0.199-0.156-0.346-0.293-0.439c-0.188-0.125-0.414-0.188-0.68-0.188c-0.27,0-0.467,0.048-0.59,0.144   s-0.184,0.211-0.184,0.348c0,0.152,0.078,0.268,0.234,0.346s0.496,0.147,1.02,0.21c0.793,0.09,1.383,0.215,1.77,0.375   s0.682,0.389,0.887,0.685c0.205,0.297,0.309,0.623,0.309,0.978c0,0.359-0.109,0.709-0.326,1.048   c-0.217,0.34-0.559,0.61-1.025,0.811c-0.467,0.201-1.102,0.302-1.906,0.302c-1.137,0-1.947-0.162-2.43-0.486   S383.521,400.869,383.385,400.271z"
   id="path39" />
	<path
   fill="#FFFFFF"
   d="M256.913,393.41v2.367h1.312v1.746h-1.312v2.205c0,0.265,0.025,0.44,0.076,0.525   c0.078,0.133,0.215,0.199,0.41,0.199c0.176,0,0.422-0.051,0.738-0.152l0.176,1.646c-0.59,0.129-1.141,0.193-1.652,0.193   c-0.594,0-1.031-0.076-1.312-0.229s-0.489-0.383-0.624-0.693c-0.135-0.31-0.202-0.812-0.202-1.507v-2.188h-0.879v-1.746h0.879   v-1.143L256.913,393.41z"
   id="path41" />
	<path
   fill="#DAE121"
   d="M284.931,393.41h2.654v6.475h4.143V402h-6.797V393.41z"
   id="path43" />
	<path
   fill="#FFFFFF"
   d="M293.764,393.41h2.385v1.623h-2.385V393.41z M293.764,395.777h2.385V402h-2.385V395.777z"
   id="path45" />
	<path
   fill="#FFFFFF"
   d="M298.572,395.777h2.221v1.014c0.332-0.414,0.668-0.71,1.008-0.888s0.754-0.267,1.242-0.267   c0.66,0,1.177,0.196,1.55,0.589s0.56,0.999,0.56,1.819V402h-2.396v-3.422c0-0.391-0.072-0.667-0.217-0.829   s-0.348-0.243-0.609-0.243c-0.289,0-0.523,0.109-0.703,0.328s-0.27,0.611-0.27,1.178V402h-2.385V395.777z"
   id="path47" />
	<path
   fill="#FFFFFF"
   d="M314.033,402h-2.227v-1.008c-0.332,0.414-0.667,0.709-1.005,0.885s-0.753,0.264-1.245,0.264   c-0.656,0-1.171-0.196-1.544-0.589s-0.56-0.997-0.56-1.813v-3.961h2.396v3.422c0,0.391,0.072,0.668,0.217,0.832   s0.348,0.246,0.609,0.246c0.285,0,0.519-0.109,0.7-0.328s0.272-0.611,0.272-1.178v-2.994h2.385V402z"
   id="path49" />
	<path
   fill="#FFFFFF"
   d="M315.847,395.777h2.83l0.987,1.734l1.151-1.734h2.631l-2.123,2.965l2.275,3.258h-2.783l-1.151-2.004   L318.313,402h-2.584l2.26-3.258L315.847,395.777z"
   id="path51" />
	<path
   fill="#DAE121"
   d="M355.542,393.41h2.648v5.118c0,0.507-0.079,0.986-0.237,1.437c-0.158,0.451-0.406,0.846-0.744,1.184   s-0.692,0.574-1.063,0.711c-0.516,0.191-1.135,0.287-1.857,0.287c-0.418,0-0.874-0.029-1.368-0.088s-0.907-0.175-1.239-0.349   s-0.636-0.42-0.911-0.74s-0.464-0.65-0.565-0.989c-0.164-0.547-0.246-1.031-0.246-1.452v-5.118h2.648v5.239   c0,0.469,0.13,0.835,0.39,1.098c0.26,0.264,0.62,0.396,1.081,0.396c0.457,0,0.815-0.13,1.075-0.39   c0.26-0.259,0.39-0.627,0.39-1.104V393.41z"
   id="path53" />
	<path
   fill="#FFFFFF"
   d="M360.268,400.271l2.367-0.223c0.098,0.281,0.234,0.482,0.41,0.604s0.41,0.182,0.703,0.182   c0.32,0,0.568-0.068,0.744-0.205c0.137-0.102,0.205-0.228,0.205-0.38c0-0.172-0.09-0.305-0.27-0.397   c-0.129-0.066-0.471-0.148-1.025-0.246c-0.828-0.145-1.403-0.278-1.726-0.401c-0.322-0.122-0.594-0.33-0.814-0.623   s-0.331-0.626-0.331-1.001c0-0.41,0.119-0.763,0.357-1.06s0.566-0.518,0.984-0.664s0.979-0.22,1.682-0.22   c0.742,0,1.29,0.057,1.644,0.17s0.648,0.289,0.885,0.527s0.433,0.561,0.589,0.967l-2.262,0.223   c-0.059-0.199-0.156-0.346-0.293-0.439c-0.188-0.125-0.414-0.188-0.68-0.188c-0.27,0-0.466,0.048-0.589,0.144   s-0.185,0.211-0.185,0.348c0,0.152,0.078,0.268,0.234,0.346s0.496,0.147,1.02,0.21c0.793,0.09,1.383,0.215,1.77,0.375   s0.683,0.389,0.888,0.685c0.205,0.297,0.308,0.623,0.308,0.978c0,0.359-0.108,0.709-0.325,1.048   c-0.217,0.34-0.559,0.61-1.025,0.811c-0.467,0.201-1.103,0.302-1.907,0.302c-1.137,0-1.946-0.162-2.429-0.486   S360.404,400.869,360.268,400.271z"
   id="path55" />
	<path
   fill="#FFFFFF"
   d="M375.828,399.48h-4.781c0.043,0.383,0.146,0.668,0.311,0.855c0.23,0.27,0.531,0.404,0.902,0.404   c0.234,0,0.457-0.059,0.668-0.176c0.129-0.074,0.268-0.205,0.416-0.393l2.35,0.217c-0.359,0.625-0.793,1.073-1.301,1.345   s-1.236,0.407-2.186,0.407c-0.824,0-1.473-0.116-1.945-0.349s-0.864-0.602-1.175-1.107s-0.466-1.101-0.466-1.784   c0-0.973,0.312-1.76,0.935-2.361s1.483-0.902,2.581-0.902c0.891,0,1.594,0.135,2.109,0.404s0.908,0.66,1.178,1.172   s0.404,1.178,0.404,1.998V399.48z M373.402,398.338c-0.047-0.461-0.171-0.791-0.372-0.99s-0.466-0.299-0.794-0.299   c-0.379,0-0.682,0.15-0.908,0.451c-0.145,0.188-0.236,0.467-0.275,0.838H373.402z"
   id="path57" />
	<path
   fill="#FFFFFF"
   d="M377.848,395.777h2.232v1.02c0.215-0.441,0.437-0.745,0.665-0.911s0.511-0.249,0.847-0.249   c0.352,0,0.736,0.109,1.154,0.328l-0.738,1.699c-0.281-0.117-0.504-0.176-0.668-0.176c-0.312,0-0.555,0.129-0.727,0.387   c-0.246,0.363-0.369,1.043-0.369,2.039V402h-2.396V395.777z"
   id="path59" />
	<path
   fill="#D9E021"
   d="M413.036,398.889v-1.787h4.102v3.662c-0.785,0.535-1.479,0.899-2.083,1.093s-1.319,0.29-2.147,0.29   c-1.02,0-1.851-0.174-2.493-0.521s-1.141-0.865-1.494-1.553s-0.53-1.477-0.53-2.367c0-0.938,0.193-1.753,0.58-2.446   s0.953-1.22,1.699-1.579c0.582-0.277,1.365-0.416,2.35-0.416c0.949,0,1.659,0.086,2.13,0.258s0.861,0.438,1.172,0.8   s0.544,0.819,0.7,1.374l-2.561,0.457c-0.105-0.324-0.284-0.572-0.536-0.744s-0.573-0.258-0.964-0.258   c-0.582,0-1.046,0.202-1.392,0.606s-0.519,1.044-0.519,1.919c0,0.93,0.175,1.594,0.524,1.992s0.837,0.598,1.462,0.598   c0.297,0,0.58-0.043,0.85-0.129s0.578-0.232,0.926-0.439v-0.809H413.036z"
   id="path61" />
	<path
   fill="#FFFFFF"
   d="M419.479,395.777h2.232v1.02c0.215-0.441,0.437-0.745,0.665-0.911s0.511-0.249,0.847-0.249   c0.352,0,0.736,0.109,1.154,0.328l-0.738,1.699c-0.281-0.117-0.504-0.176-0.668-0.176c-0.312,0-0.555,0.129-0.727,0.387   c-0.246,0.363-0.369,1.043-0.369,2.039V402h-2.396V395.777z"
   id="path63" />
	<path
   fill="#FFFFFF"
   d="M425.582,398.906c0-0.949,0.32-1.731,0.961-2.347s1.506-0.923,2.596-0.923c1.246,0,2.188,0.361,2.824,1.084   c0.512,0.582,0.768,1.299,0.768,2.15c0,0.957-0.317,1.741-0.952,2.353s-1.513,0.917-2.634,0.917c-1,0-1.809-0.254-2.426-0.762   C425.961,400.75,425.582,399.926,425.582,398.906z M427.973,398.9c0,0.555,0.112,0.965,0.337,1.23s0.507,0.398,0.847,0.398   c0.344,0,0.626-0.131,0.847-0.393s0.331-0.682,0.331-1.26c0-0.539-0.111-0.94-0.334-1.204s-0.498-0.396-0.826-0.396   c-0.348,0-0.635,0.134-0.861,0.401S427.973,398.354,427.973,398.9z"
   id="path65" />
	<path
   fill="#FFFFFF"
   d="M441.336,402h-2.227v-1.008c-0.332,0.414-0.667,0.709-1.005,0.885s-0.753,0.264-1.245,0.264   c-0.656,0-1.171-0.196-1.544-0.589s-0.56-0.997-0.56-1.813v-3.961h2.396v3.422c0,0.391,0.072,0.668,0.217,0.832   s0.348,0.246,0.609,0.246c0.285,0,0.519-0.109,0.7-0.328s0.272-0.611,0.272-1.178v-2.994h2.385V402z"
   id="path67" />
	<path
   fill="#FFFFFF"
   d="M443.695,404.367v-8.59h2.232v0.92c0.309-0.387,0.592-0.648,0.85-0.785   c0.348-0.184,0.732-0.275,1.154-0.275c0.832,0,1.476,0.318,1.931,0.955s0.683,1.424,0.683,2.361c0,1.035-0.248,1.825-0.744,2.37   s-1.123,0.817-1.881,0.817c-0.367,0-0.702-0.062-1.005-0.188s-0.573-0.311-0.812-0.557v2.971H443.695z M446.086,398.906   c0,0.492,0.104,0.857,0.311,1.096s0.469,0.357,0.785,0.357c0.277,0,0.51-0.114,0.697-0.343s0.281-0.616,0.281-1.163   c0-0.504-0.098-0.874-0.293-1.11s-0.434-0.354-0.715-0.354c-0.305,0-0.559,0.119-0.762,0.357S446.086,398.371,446.086,398.906z"
   id="path69" />
</g>
<g
   id="g71">
</g>
</svg>